<!-- Generated by IcoMoon.io -->
<svg version="1.1" xmlns="http://www.w3.org/2000/svg" width="1083" height="1024" viewBox="0 0 1083 1024">
<title></title>
<g id="icomoon-ignore">
</g>
<path d="M937.678 556.338c0-222.877-180.771-403.648-403.648-403.648s-403.648 180.771-403.648 403.648c0 222.877 180.771 403.648 403.648 403.648s403.648-180.771 403.648-403.648zM1002.044 556.338c0 258.425-209.588 468.013-468.013 468.013s-468.013-209.588-468.013-468.013c0-258.425 209.588-468.013 468.013-468.013s468.013 209.588 468.013 468.013z"></path>
<path d="M44.218 234.104l-41.569-49.142 214.937-181.814 41.569 49.142z"></path>
<path d="M1069.034 184.965l-41.577 49.135-214.864-181.814 41.577-49.135z"></path>
<path d="M758.047 524.184v64.366h-224.017c-17.774 0-32.183-14.409-32.183-32.183v-248.060h64.366v215.877h191.834z"></path>
</svg>
